<?xml version="1.0" encoding="UTF-8" standalone="no"?>
<!DOCTYPE svg PUBLIC "-//W3C//DTD SVG 1.1//EN" "http://www.w3.org/Graphics/SVG/1.1/DTD/svg11.dtd">
<svg width="100%" height="100%" viewBox="0 0 3835 1847" version="1.1" xmlns="http://www.w3.org/2000/svg" xmlns:xlink="http://www.w3.org/1999/xlink" xml:space="preserve" xmlns:serif="http://www.serif.com/" style="fill-rule:evenodd;clip-rule:evenodd;stroke-linejoin:round;stroke-miterlimit:2;">
    <g transform="matrix(1,0,0,1,-3049.23,-5773.6)">
        <g transform="matrix(0.416667,0,0,0.416667,2859.65,3659.19)">
            <path d="M6258,5408C6218,5438 6216,5502 6254,5533C6274,5550 6277,5683 6258,5688C6251,5690 6225,5696 6200,5702C6175,5708 6148,5715 6139,5719C6113,5729 6079,5667 6087,5622C6091,5592 6088,5581 6067,5560C6052,5545 6030,5534 6015,5534C5980,5534 5940,5576 5940,5612C5940,5642 5972,5684 5995,5684C6003,5684 6019,5703 6031,5725L6052,5767L6000,5819L5949,5871L5887,5838C5853,5820 5824,5800 5824,5795C5823,5789 5822,5777 5821,5769C5817,5717 5731,5696 5692,5737C5642,5790 5681,5879 5752,5873C5775,5871 5804,5880 5848,5904C5882,5923 5910,5942 5910,5945C5910,5949 5903,5971 5895,5994C5887,6017 5880,6047 5880,6060C5880,6082 5876,6084 5835,6084C5804,6084 5780,6077 5761,6063C5723,6035 5676,6044 5655,6084C5634,6124 5636,6141 5665,6169C5692,6197 5741,6202 5760,6179C5768,6169 5790,6164 5824,6164L5875,6164L5887,6221C5893,6253 5901,6286 5904,6294C5913,6317 5800,6379 5749,6380C5722,6380 5702,6387 5688,6402C5659,6431 5659,6487 5688,6516C5731,6559 5820,6533 5820,6478C5820,6461 5835,6446 5879,6420C5911,6400 5942,6384 5947,6384C5952,6384 5977,6406 6004,6433L6052,6481L6031,6523C6019,6545 6003,6564 5995,6564C5972,6564 5940,6601 5940,6628C5940,6667 5976,6704 6016,6704C6065,6704 6093,6673 6087,6626C6085,6602 6089,6576 6101,6553L6119,6517L6172,6535C6201,6545 6235,6553 6248,6554C6269,6554 6270,6558 6270,6621C6270,6675 6266,6692 6249,6710C6218,6743 6220,6802 6255,6831C6289,6861 6325,6860 6355,6829C6387,6798 6389,6743 6360,6714C6344,6698 6340,6681 6340,6624C6340,6558 6341,6554 6363,6554C6375,6553 6409,6545 6438,6535L6491,6517L6509,6553C6521,6576 6525,6602 6523,6626C6519,6653 6523,6667 6539,6683C6570,6714 6623,6711 6649,6678C6661,6663 6670,6645 6670,6638C6670,6611 6646,6573 6626,6568C6614,6565 6595,6545 6583,6523L6561,6482L6611,6432C6656,6387 6664,6383 6685,6392C6742,6418 6790,6455 6790,6473C6790,6532 6878,6561 6922,6516C6974,6464 6928,6366 6856,6377C6816,6383 6697,6317 6706,6294C6709,6286 6717,6253 6723,6221L6735,6164L6780,6164C6805,6164 6834,6171 6844,6179C6870,6198 6910,6198 6938,6178C6966,6158 6969,6095 6942,6071C6919,6050 6857,6049 6840,6069C6832,6078 6810,6084 6781,6084L6734,6084L6722,6024C6715,5990 6707,5958 6705,5951C6698,5932 6816,5869 6850,5872C6896,5877 6921,5865 6936,5828C6955,5784 6954,5780 6924,5745C6907,5724 6889,5714 6870,5714C6835,5714 6790,5749 6790,5777C6790,5794 6775,5807 6727,5832L6664,5864L6613,5815L6561,5765L6582,5726C6594,5705 6613,5683 6624,5678C6635,5673 6651,5657 6659,5643C6678,5610 6660,5562 6624,5545C6589,5529 6576,5531 6546,5555C6523,5573 6519,5583 6521,5618C6525,5670 6497,5729 6472,5719C6463,5716 6435,5708 6410,5702C6385,5696 6359,5690 6353,5688C6344,5686 6340,5663 6340,5618C6340,5567 6345,5546 6360,5527C6371,5513 6380,5486 6380,5468C6380,5411 6304,5373 6258,5408ZM6478,5923C6480,5935 6476,5952 6469,5960C6454,5979 6410,5974 6397,5953C6383,5931 6396,5886 6418,5881C6442,5875 6474,5897 6478,5923ZM6220,5944C6265,5989 6231,6064 6166,6064C6129,6064 6090,6028 6090,5994C6090,5984 6099,5965 6111,5950C6137,5917 6190,5914 6220,5944ZM6495,6149C6514,6167 6520,6184 6520,6214C6520,6270 6486,6304 6431,6304C6399,6304 6387,6298 6366,6273C6331,6232 6332,6190 6369,6153C6407,6115 6460,6113 6495,6149ZM6187,6280C6197,6306 6173,6344 6147,6344C6115,6344 6086,6311 6095,6284C6108,6243 6172,6241 6187,6280Z" style="fill:rgb(0,181,107);fill-rule:nonzero;"/>
        </g>
        <g transform="matrix(1,0,0,1,-5.64364,-4.8693)">
            <path d="M6674.1,6403.58C6674.1,6396.28 6668.18,6390.36 6660.88,6390.36L6245.56,6390.36C6238.26,6390.36 6232.34,6396.28 6232.34,6403.58L6232.34,6430.03C6232.34,6437.33 6238.26,6443.26 6245.56,6443.26L6660.88,6443.26C6668.18,6443.26 6674.1,6437.33 6674.1,6430.03L6674.1,6403.58ZM6674.1,6324.23C6674.1,6316.93 6668.18,6311 6660.88,6311L6245.56,6311C6238.26,6311 6232.34,6316.93 6232.34,6324.23L6232.34,6350.68C6232.34,6357.98 6238.26,6363.9 6245.56,6363.9L6660.88,6363.9C6668.18,6363.9 6674.1,6357.98 6674.1,6350.68L6674.1,6324.23ZM6674.1,6246.33C6674.1,6239.03 6668.18,6233.1 6660.88,6233.1L6245.56,6233.1C6238.26,6233.1 6232.34,6239.03 6232.34,6246.33L6232.34,6272.78C6232.34,6280.08 6238.26,6286.01 6245.56,6286.01L6660.88,6286.01C6668.18,6286.01 6674.1,6280.08 6674.1,6272.78L6674.1,6246.33ZM6674.1,6166.97C6674.1,6159.67 6668.18,6153.74 6660.88,6153.74L6245.56,6153.74C6238.26,6153.74 6232.34,6159.67 6232.34,6166.97L6232.34,6193.42C6232.34,6200.72 6238.26,6206.65 6245.56,6206.65L6660.88,6206.65C6668.18,6206.65 6674.1,6200.72 6674.1,6193.42L6674.1,6166.97ZM6245.56,6128.04L6660.88,6128.04L6661.05,6128.04C6668.27,6127.95 6674.1,6122.06 6674.1,6114.82L6674.1,6088.36C6674.1,6081.07 6668.18,6075.14 6660.88,6075.14L6245.56,6075.14C6238.26,6075.14 6232.34,6081.07 6232.34,6088.36L6232.34,6114.82C6232.34,6122.12 6238.26,6128.04 6245.56,6128.04ZM6674.1,6009.01C6674.1,6001.71 6668.18,5995.78 6660.88,5995.78L6245.56,5995.78C6238.26,5995.78 6232.34,6001.71 6232.34,6009.01L6232.34,6035.46C6232.34,6042.76 6238.26,6048.69 6245.56,6048.69L6660.88,6048.69C6668.18,6048.69 6674.1,6042.76 6674.1,6035.46L6674.1,6009.01Z" style="fill:rgb(0,181,107);"/>
        </g>
        <path d="M4542.98,5915.86C4536.32,5927.11 4535.9,5930.44 4540.48,5935.86C4545.9,5942.11 4545.07,5950.44 4537.98,5959.61C4535.07,5963.36 4530.9,5962.94 4520.07,5957.94C4502.57,5949.61 4498.4,5952.52 4479.65,5985.44C4472.57,5998.36 4443.4,6048.77 4414.65,6097.94C4364.65,6184.19 4363.4,6187.11 4370.9,6194.61C4382.98,6206.27 4467.15,6252.52 4476.32,6252.52C4482.15,6252.52 4489.23,6245.44 4497.98,6231.27C4511.32,6210.44 4511.73,6210.02 4528.4,6212.52C4551.73,6215.86 4574.65,6209.61 4592.98,6194.61C4607.98,6182.52 4608.82,6182.52 4615.48,6189.61C4637.15,6213.36 4644.65,6270.86 4631.73,6309.19C4622.15,6337.11 4585.9,6373.36 4557.98,6382.94C4528.82,6392.94 4525.48,6392.52 4531.32,6379.61C4535.48,6370.44 4534.65,6367.11 4527.57,6357.52L4519.23,6346.27L4405.48,6345.02C4303.82,6344.19 4290.9,6344.61 4283.82,6350.86C4275.48,6358.77 4273.82,6377.52 4281.32,6385.02C4284.65,6388.36 4307.98,6390.02 4358.4,6390.02L4430.48,6390.02L4430.48,6448.36L4379.23,6448.36C4333.4,6448.36 4326.73,6449.19 4318.82,6456.69C4305.48,6469.19 4305.07,6490.86 4318.4,6504.61C4326.32,6512.52 4332.98,6512.94 4491.73,6514.19C4665.48,6515.44 4675.9,6514.61 4685.48,6497.11C4692.57,6483.36 4690.48,6463.77 4680.07,6455.86C4673.4,6450.02 4662.98,6448.36 4635.07,6448.36L4599.23,6447.94L4615.9,6439.19C4656.32,6418.36 4691.32,6377.94 4710.07,6330.86C4721.32,6302.94 4725.07,6249.19 4717.98,6218.77C4709.23,6181.69 4686.73,6143.36 4658.4,6117.11C4644.23,6104.19 4624.65,6086.27 4615.07,6077.11L4597.98,6060.02L4605.9,6046.69C4616.73,6028.77 4615.9,6021.69 4600.48,6007.11C4587.57,5995.02 4587.57,5994.61 4594.65,5983.77C4599.65,5975.86 4603.82,5973.77 4608.82,5975.86C4623.82,5982.11 4632.15,5979.61 4636.32,5967.94C4639.23,5960.02 4639.23,5954.19 4636.32,5949.19C4630.48,5940.02 4567.98,5902.52 4558.4,5902.52C4554.65,5902.52 4547.57,5908.36 4542.98,5915.86ZM4338.82,6223.36C4335.9,6230.02 4334.65,6238.36 4335.9,6241.27C4338.82,6248.77 4432.15,6302.52 4442.57,6302.52C4451.32,6302.52 4466.32,6280.44 4462.15,6273.77C4458.4,6268.36 4356.32,6210.86 4349.65,6210.86C4346.73,6210.86 4341.73,6216.27 4338.82,6223.36ZM4557.15,6079.19C4602.15,6097.94 4599.23,6162.52 4552.98,6177.52C4526.32,6186.27 4496.73,6168.77 4488.4,6139.19C4482.57,6117.11 4494.23,6090.44 4514.23,6080.44C4531.73,6072.11 4539.23,6071.69 4557.15,6079.19ZM4520.48,6107.11C4514.23,6112.11 4509.65,6119.61 4509.65,6125.86C4509.65,6138.36 4526.73,6156.69 4538.82,6156.69C4550.07,6156.69 4567.98,6138.77 4567.98,6127.52C4567.98,6116.69 4550.07,6098.36 4539.65,6098.36C4535.07,6098.36 4526.73,6102.11 4520.48,6107.11Z" style="fill:rgb(0,181,107);fill-rule:nonzero;"/>
        <g transform="matrix(8.82031,0,0,8.82031,-25992.8,-64032.3)">
            <path d="M3316.53,8079.41L3339.88,8079.41L3339.88,8073.33L3323.91,8073.33L3323.91,8064.42L3338.97,8064.42L3338.97,8058.76L3323.91,8058.76L3323.91,8050.26L3339.88,8050.26L3339.88,8044.18L3316.53,8044.18L3316.53,8079.41Z" style="fill:rgb(0,181,107);fill-rule:nonzero;"/>
            <path d="M3347.64,8079.41L3363.46,8079.41C3370.98,8079.41 3375.64,8075.53 3375.64,8069.36L3375.64,8069.31C3375.64,8064.79 3372.25,8061.3 3367.59,8060.93L3367.59,8060.49C3371.2,8059.95 3373.96,8056.71 3373.96,8053L3373.96,8052.95C3373.96,8047.53 3369.88,8044.18 3363.04,8044.18L3347.64,8044.18L3347.64,8079.41ZM3361.16,8049.65C3364.68,8049.65 3366.71,8051.36 3366.71,8054.22L3366.71,8054.27C3366.71,8057.17 3364.53,8058.83 3360.55,8058.83L3355.01,8058.83L3355.01,8049.65L3361.16,8049.65ZM3361.41,8063.69C3365.75,8063.69 3368.12,8065.45 3368.12,8068.72L3368.12,8068.77C3368.12,8072.11 3365.83,8073.92 3361.58,8073.92L3355.01,8073.92L3355.01,8063.69L3361.41,8063.69Z" style="fill:rgb(0,181,107);fill-rule:nonzero;"/>
            <path d="M3379.79,8079.41L3387.53,8079.41L3390.14,8070.87L3402.57,8070.87L3405.18,8079.41L3412.95,8079.41L3400.69,8044.18L3392.02,8044.18L3379.79,8079.41ZM3396.15,8051.22L3396.59,8051.22L3400.89,8065.35L3391.83,8065.35L3396.15,8051.22Z" style="fill:rgb(0,181,107);fill-rule:nonzero;"/>
            <path d="M3418.93,8079.41L3425.49,8079.41L3425.49,8055.44L3425.98,8055.44L3435.02,8079.41L3439.63,8079.41L3448.66,8055.44L3449.15,8055.44L3449.15,8079.41L3455.72,8079.41L3455.72,8044.18L3447.27,8044.18L3437.56,8069.97L3437.12,8069.97L3427.38,8044.18L3418.93,8044.18L3418.93,8079.41Z" style="fill:rgb(0,181,107);fill-rule:nonzero;"/>
            <path d="M3464.26,8079.41L3487.61,8079.41L3487.61,8073.33L3471.64,8073.33L3471.64,8064.42L3486.7,8064.42L3486.7,8058.76L3471.64,8058.76L3471.64,8050.26L3487.61,8050.26L3487.61,8044.18L3464.26,8044.18L3464.26,8079.41Z" style="fill:rgb(0,181,107);fill-rule:nonzero;"/>
            <path d="M3517.49,8079.41L3526.57,8079.41L3538.31,8044.18L3530.01,8044.18L3522.25,8071.21L3521.81,8071.21L3514.02,8044.18L3505.74,8044.18L3517.49,8079.41Z" style="fill:rgb(0,181,107);fill-rule:nonzero;"/>
            <rect x="3544.32" y="8044.18" width="7.373" height="35.229" style="fill:rgb(0,181,107);fill-rule:nonzero;"/>
            <path d="M3560.24,8079.41L3567.61,8079.41L3567.61,8066.52L3573.64,8066.52L3580.21,8079.41L3588.56,8079.41L3581.14,8065.42C3585.16,8063.84 3587.51,8059.95 3587.51,8055.44L3587.51,8055.39C3587.51,8048.46 3582.92,8044.18 3574.91,8044.18L3560.24,8044.18L3560.24,8079.41ZM3567.61,8061.15L3567.61,8049.95L3574.01,8049.95C3577.69,8049.95 3579.96,8052.14 3579.96,8055.54L3579.96,8055.59C3579.96,8059.05 3577.79,8061.15 3574.1,8061.15L3567.61,8061.15Z" style="fill:rgb(0,181,107);fill-rule:nonzero;"/>
            <path d="M3610.36,8080.32C3620.76,8080.32 3627.3,8073.19 3627.3,8061.81L3627.3,8061.76C3627.3,8050.39 3620.74,8043.28 3610.36,8043.28C3599.98,8043.28 3593.39,8050.36 3593.39,8061.76L3593.39,8061.81C3593.39,8073.19 3599.89,8080.32 3610.36,8080.32ZM3610.36,8074.07C3604.55,8074.07 3600.91,8069.26 3600.91,8061.81L3600.91,8061.76C3600.91,8054.29 3604.62,8049.53 3610.36,8049.53C3616.07,8049.53 3619.78,8054.29 3619.78,8061.76L3619.78,8061.81C3619.78,8069.26 3616.1,8074.07 3610.36,8074.07Z" style="fill:rgb(0,181,107);fill-rule:nonzero;"/>
            <path d="M3634.28,8079.41L3640.85,8079.41L3640.85,8055.44L3641.34,8055.44L3650.37,8079.41L3654.99,8079.41L3664.02,8055.44L3664.51,8055.44L3664.51,8079.41L3671.08,8079.41L3671.08,8044.18L3662.63,8044.18L3652.91,8069.97L3652.47,8069.97L3642.73,8044.18L3634.28,8044.18L3634.28,8079.41Z" style="fill:rgb(0,181,107);fill-rule:nonzero;"/>
            <path d="M3679.62,8079.41L3702.96,8079.41L3702.96,8073.33L3686.99,8073.33L3686.99,8064.42L3702.06,8064.42L3702.06,8058.76L3686.99,8058.76L3686.99,8050.26L3702.96,8050.26L3702.96,8044.18L3679.62,8044.18L3679.62,8079.41Z" style="fill:rgb(0,181,107);fill-rule:nonzero;"/>
        </g>
        <g transform="matrix(7.76164,0,0,7.76164,-22277.1,-55096)">
            <path d="M3377.07,8079.41L3381.42,8079.41L3381.42,8052.09L3381.81,8052.09L3400.92,8079.41L3405.2,8079.41L3405.2,8044.18L3400.85,8044.18L3400.85,8071.6L3400.46,8071.6L3381.34,8044.18L3377.07,8044.18L3377.07,8079.41Z" style="fill:rgb(160,160,160);fill-rule:nonzero;"/>
            <path d="M3414.18,8079.41L3436.01,8079.41L3436.01,8075.46L3418.57,8075.46L3418.57,8063.35L3435.1,8063.35L3435.1,8059.44L3418.57,8059.44L3418.57,8048.14L3436.01,8048.14L3436.01,8044.18L3414.18,8044.18L3414.18,8079.41Z" style="fill:rgb(160,160,160);fill-rule:nonzero;"/>
            <path d="M3441.64,8079.41L3446.63,8079.41L3456.12,8065.35L3456.27,8065.35L3465.64,8079.41L3470.92,8079.41L3459,8061.93L3459,8061.84L3471.19,8044.18L3466.18,8044.18L3456.66,8058.37L3456.51,8058.37L3447.09,8044.18L3441.79,8044.18L3453.66,8061.61L3453.66,8061.71L3441.64,8079.41Z" style="fill:rgb(160,160,160);fill-rule:nonzero;"/>
            <path d="M3487.06,8079.41L3491.45,8079.41L3491.45,8048.14L3502.8,8048.14L3502.8,8044.18L3475.7,8044.18L3475.7,8048.14L3487.06,8048.14L3487.06,8079.41Z" style="fill:rgb(160,160,160);fill-rule:nonzero;"/>
            <path d="M3509.59,8079.41L3513.98,8079.41L3513.98,8064.15L3529.59,8064.15L3529.59,8060.25L3513.98,8060.25L3513.98,8048.14L3530.98,8048.14L3530.98,8044.18L3509.59,8044.18L3509.59,8079.41Z" style="fill:rgb(160,160,160);fill-rule:nonzero;"/>
            <path d="M3538.2,8079.41L3559.59,8079.41L3559.59,8075.46L3542.6,8075.46L3542.6,8044.18L3538.2,8044.18L3538.2,8079.41Z" style="fill:rgb(160,160,160);fill-rule:nonzero;"/>
            <path d="M3579.93,8080.24C3589.99,8080.24 3596.09,8073.04 3596.09,8061.81L3596.09,8061.76C3596.09,8050.48 3589.94,8043.35 3579.93,8043.35C3569.97,8043.35 3563.76,8050.46 3563.76,8061.76L3563.76,8061.81C3563.76,8073.07 3569.82,8080.24 3579.93,8080.24ZM3579.93,8076.19C3572.6,8076.19 3568.26,8070.53 3568.26,8061.81L3568.26,8061.76C3568.26,8052.97 3572.75,8047.41 3579.93,8047.41C3587.13,8047.41 3591.6,8052.97 3591.6,8061.76L3591.6,8061.81C3591.6,8070.53 3587.15,8076.19 3579.93,8076.19Z" style="fill:rgb(160,160,160);fill-rule:nonzero;"/>
            <path d="M3609.54,8079.41L3613.69,8079.41L3621.8,8051.61L3622.09,8051.61L3630.2,8079.41L3634.35,8079.41L3643.94,8044.18L3639.35,8044.18L3632.34,8072.82L3632.05,8072.82L3624.16,8044.18L3619.72,8044.18L3611.84,8072.82L3611.54,8072.82L3604.54,8044.18L3599.95,8044.18L3609.54,8079.41Z" style="fill:rgb(160,160,160);fill-rule:nonzero;"/>
        </g>
        <path d="M4509.3,5773.6C4752.72,5773.6 4950.35,5971.23 4950.35,6214.65C4950.35,6458.08 4752.72,6655.71 4509.3,6655.71C4265.87,6655.71 4068.24,6458.08 4068.24,6214.65C4068.24,5971.23 4265.87,5773.6 4509.3,5773.6ZM4509.3,5816.04C4729.3,5816.04 4907.91,5994.65 4907.91,6214.65C4907.91,6434.65 4729.3,6613.26 4509.3,6613.26C4289.3,6613.26 4110.69,6434.65 4110.69,6214.65C4110.69,5994.65 4289.3,5816.04 4509.3,5816.04Z" style="fill:rgb(25,90,76);"/>
        <g transform="matrix(1,0,0,1,985.709,0)">
            <path d="M4509.3,5773.6C4752.72,5773.6 4950.35,5971.23 4950.35,6214.65C4950.35,6458.08 4752.72,6655.71 4509.3,6655.71C4265.87,6655.71 4068.24,6458.08 4068.24,6214.65C4068.24,5971.23 4265.87,5773.6 4509.3,5773.6ZM4509.3,5816.04C4729.3,5816.04 4907.91,5994.65 4907.91,6214.65C4907.91,6434.65 4729.3,6613.26 4509.3,6613.26C4289.3,6613.26 4110.69,6434.65 4110.69,6214.65C4110.69,5994.65 4289.3,5816.04 4509.3,5816.04Z" style="fill:rgb(25,90,76);"/>
        </g>
        <g transform="matrix(1,0,0,1,1933.48,0)">
            <path d="M4509.3,5773.6C4752.72,5773.6 4950.35,5971.23 4950.35,6214.65C4950.35,6458.08 4752.72,6655.71 4509.3,6655.71C4265.87,6655.71 4068.24,6458.08 4068.24,6214.65C4068.24,5971.23 4265.87,5773.6 4509.3,5773.6ZM4509.3,5816.04C4729.3,5816.04 4907.91,5994.65 4907.91,6214.65C4907.91,6434.65 4729.3,6613.26 4509.3,6613.26C4289.3,6613.26 4110.69,6434.65 4110.69,6214.65C4110.69,5994.65 4289.3,5816.04 4509.3,5816.04Z" style="fill:rgb(25,90,76);"/>
        </g>
        <g transform="matrix(1.15877,0,0,1.15877,-636.648,-986.749)">
            <path d="M3996.5,6170.26L3996.5,6080.51L4127.81,6217.82L3996.5,6349.14L3996.5,6266.66L3891.77,6266.66L3898,6170.26L3996.5,6170.26Z" style="fill:rgb(25,90,76);"/>
        </g>
        <g transform="matrix(1.15877,0,0,1.15877,359.659,-986.749)">
            <path d="M3996.5,6170.26L3996.5,6080.51L4127.81,6217.82L3996.5,6349.14L3996.5,6266.66L3935.23,6266.66L3941.46,6170.26L3996.5,6170.26Z" style="fill:rgb(25,90,76);"/>
        </g>
        <g transform="matrix(1.15877,0,0,1.15877,1330.1,-986.749)">
            <path d="M3996.5,6170.26L3996.5,6080.51L4127.81,6217.82L3996.5,6349.14L3996.5,6266.66L3947.06,6266.66L3953.29,6170.26L3996.5,6170.26Z" style="fill:rgb(25,90,76);"/>
        </g>
        <g>
            <g transform="matrix(1,0,0,1,-25.3088,-29.0059)">
                <path d="M3734.91,6008.16C3734.91,5991.58 3721.45,5978.12 3704.88,5978.12L3258.76,5978.12C3242.18,5978.12 3228.73,5991.58 3228.73,6008.16C3228.73,6024.73 3242.18,6038.19 3258.76,6038.19L3704.88,6038.19C3721.45,6038.19 3734.91,6024.73 3734.91,6008.16Z" style="fill:rgb(0,181,107);"/>
            </g>
            <g transform="matrix(0.81014,0,0,1,587.696,126.996)">
                <path d="M3734.91,6008.16C3734.91,5991.58 3718.3,5978.12 3697.84,5978.12L3265.8,5978.12C3245.34,5978.12 3228.73,5991.58 3228.73,6008.16C3228.73,6024.73 3245.34,6038.19 3265.8,6038.19L3697.84,6038.19C3718.3,6038.19 3734.91,6024.73 3734.91,6008.16Z" style="fill:rgb(0,181,107);"/>
            </g>
            <g transform="matrix(0.953844,0,0,1,123.717,284.92)">
                <path d="M3734.91,6008.16C3734.91,5991.58 3720.8,5978.12 3703.43,5978.12L3260.21,5978.12C3242.84,5978.12 3228.73,5991.58 3228.73,6008.16C3228.73,6024.73 3242.84,6038.19 3260.21,6038.19L3703.43,6038.19C3720.8,6038.19 3734.91,6024.73 3734.91,6008.16Z" style="fill:rgb(0,181,107);"/>
            </g>
            <g transform="matrix(0.88443,0,0,1,347.834,441.998)">
                <path d="M3734.91,6008.16C3734.91,5991.58 3719.7,5978.12 3700.95,5978.12L3262.68,5978.12C3243.94,5978.12 3228.73,5991.58 3228.73,6008.16C3228.73,6024.73 3243.94,6038.19 3262.68,6038.19L3700.95,6038.19C3719.7,6038.19 3734.91,6024.73 3734.91,6008.16Z" style="fill:rgb(0,181,107);"/>
            </g>
        </g>
        <path d="M3898,5899.34C3898,5829.94 3841.66,5773.6 3772.26,5773.6L3174.97,5773.6C3105.58,5773.6 3049.24,5829.94 3049.24,5899.34L3049.24,6529.97C3049.24,6599.36 3105.58,6655.71 3174.97,6655.71L3772.26,6655.71C3841.66,6655.71 3898,6599.36 3898,6529.97L3898,5899.34ZM3847.38,5902.67C3847.38,5860.47 3813.12,5826.2 3770.92,5826.2L3176.32,5826.2C3134.12,5826.2 3099.85,5860.47 3099.85,5902.67L3099.85,6526.64C3099.85,6568.84 3134.12,6603.1 3176.32,6603.1L3770.92,6603.1C3813.12,6603.1 3847.38,6568.84 3847.38,6526.64L3847.38,5902.67Z" style="fill:rgb(25,90,76);"/>
    </g>
</svg>
